<?xml version="1.0" encoding="utf-8"?>
<svg xmlns="http://www.w3.org/2000/svg" style="margin: auto; display: block; shape-rendering: auto;" width="279" height="31" preserveAspectRatio="xMidYMid">
<style type="text/css">
  text {
    text-anchor: middle; font-size: 26px; opacity: 0;
  }
</style>
<g transform="translate(139.5,15.5)">
  <g transform="translate(0,0)"><g class="path" style="transform-origin: -58.525px -2.3587px 0px; opacity: 1; animation: fade-7104a07c-2904-46ef-a3b8-b1ebb867870b 1.88679s linear -1.14949s infinite normal forwards running;"><path d="M4.29-19.24L4.29-4.47L4.29-4.47Q4.29-3.07 4.88-2.39L4.88-2.39L4.88-2.39Q5.46-1.72 6.50-1.72L6.50-1.72L6.50-1.72Q6.99-1.72 7.46-1.83L7.46-1.83L7.46-1.83Q7.93-1.95 8.29-2.11L8.29-2.11L8.87-0.21L8.87-0.21Q8.40 0 7.71 0.16L7.71 0.16L7.71 0.16Q7.02 0.31 6.19 0.31L6.19 0.31L6.19 0.31Q5.28 0.31 4.51 0.05L4.51 0.05L4.51 0.05Q3.74-0.21 3.17-0.75L3.17-0.75L3.17-0.75Q2.60-1.30 2.28-2.16L2.28-2.16L2.28-2.16Q1.95-3.02 1.95-4.24L1.95-4.24L1.95-19.24L4.29-19.24" fill="#733465" stroke="none" stroke-width="none" transform="translate(-63.935028076171875,7.106288311298082)" style="fill: rgb(115, 52, 101);"></path></g><g class="path" style="transform-origin: -47.555px 0.346283px 0px; opacity: 1; animation: fade-7104a07c-2904-46ef-a3b8-b1ebb867870b 1.88679s linear -1.0537s infinite normal forwards running;"><path d="M20.72-6.76L20.72-6.76L20.72-6.76Q20.72-7.77 20.40-8.68L20.40-8.68L20.40-8.68Q20.07-9.59 19.49-10.27L19.49-10.27L19.49-10.27Q18.90-10.95 18.11-11.35L18.11-11.35L18.11-11.35Q17.32-11.75 16.38-11.75L16.38-11.75L16.38-11.75Q14.33-11.75 13.18-10.40L13.18-10.40L13.18-10.40Q12.04-9.05 12.04-6.81L12.04-6.81L12.04-6.81Q12.04-5.80 12.36-4.88L12.36-4.88L12.36-4.88Q12.69-3.95 13.27-3.26L13.27-3.26L13.27-3.26Q13.86-2.57 14.65-2.17L14.65-2.17L14.65-2.17Q15.44-1.77 16.38-1.77L16.38-1.77L16.38-1.77Q17.39-1.77 18.20-2.13L18.20-2.13L18.20-2.13Q19.01-2.50 19.57-3.16L19.57-3.16L19.57-3.16Q20.12-3.82 20.42-4.73L20.42-4.73L20.42-4.73Q20.72-5.64 20.72-6.76zM9.65-6.76L9.65-6.76L9.65-6.76Q9.65-8.40 10.17-9.71L10.17-9.71L10.17-9.71Q10.69-11.02 11.58-11.93L11.58-11.93L11.58-11.93Q12.48-12.84 13.71-13.34L13.71-13.34L13.71-13.34Q14.95-13.83 16.38-13.83L16.38-13.83L16.38-13.83Q17.78-13.83 19.02-13.34L19.02-13.34L19.02-13.34Q20.25-12.84 21.16-11.93L21.16-11.93L21.16-11.93Q22.07-11.02 22.59-9.72L22.59-9.72L22.59-9.72Q23.11-8.42 23.11-6.81L23.11-6.81L23.11-6.81Q23.11-5.20 22.61-3.89L22.61-3.89L22.61-3.89Q22.10-2.57 21.19-1.64L21.19-1.64L21.19-1.64Q20.28-0.70 19.05-0.20L19.05-0.20L19.05-0.20Q17.81 0.31 16.38 0.31L16.38 0.31L16.38 0.31Q14.92 0.31 13.69-0.21L13.69-0.21L13.69-0.21Q12.45-0.73 11.56-1.66L11.56-1.66L11.56-1.66Q10.66-2.60 10.15-3.90L10.15-3.90L10.15-3.90Q9.65-5.20 9.65-6.76" fill="#733465" stroke="none" stroke-width="none" transform="translate(-63.935028076171875,7.106288311298082)" style="fill: rgb(115, 52, 101);"></path></g><g class="path" style="transform-origin: -31.695px 0.346283px 0px; opacity: 1; animation: fade-7104a07c-2904-46ef-a3b8-b1ebb867870b 1.88679s linear -0.95791s infinite normal forwards running;"><path d="M25.32-6.68L25.32-6.68L25.32-6.68Q25.32-8.19 25.79-9.50L25.79-9.50L25.79-9.50Q26.26-10.82 27.11-11.78L27.11-11.78L27.11-11.78Q27.95-12.74 29.13-13.29L29.13-13.29L29.13-13.29Q30.32-13.83 31.72-13.83L31.72-13.83L31.72-13.83Q32.89-13.83 33.84-13.43L33.84-13.43L33.84-13.43Q34.79-13.03 35.49-12.43L35.49-12.43L35.49-13.52L37.62-13.52L37.62-3.28L37.62-3.28Q37.62-2.29 38.10-1.99L38.10-1.99L38.10-1.99Q38.58-1.69 39.16-1.69L39.16-1.69L38.66 0.13L38.66 0.13Q36.17 0.13 35.65-1.90L35.65-1.90L35.65-1.90Q35.33-1.48 34.93-1.08L34.93-1.08L34.93-1.08Q34.53-0.68 34.01-0.36L34.01-0.36L34.01-0.36Q33.49-0.05 32.84 0.13L32.84 0.13L32.84 0.13Q32.19 0.31 31.41 0.31L31.41 0.31L31.41 0.31Q30.13 0.31 29.03-0.18L29.03-0.18L29.03-0.18Q27.92-0.68 27.11-1.59L27.11-1.59L27.11-1.59Q26.29-2.50 25.81-3.78L25.81-3.78L25.81-3.78Q25.32-5.07 25.32-6.68zM31.93-1.77L31.93-1.77L31.93-1.77Q32.92-1.77 33.80-2.24L33.80-2.24L33.80-2.24Q34.68-2.70 35.28-3.46L35.28-3.46L35.28-10.71L35.28-10.71Q34.58-11.21 33.74-11.51L33.74-11.51L33.74-11.51Q32.89-11.80 31.95-11.80L31.95-11.80L31.95-11.80Q31.02-11.80 30.24-11.44L30.24-11.44L30.24-11.44Q29.46-11.08 28.90-10.41L28.90-10.41L28.90-10.41Q28.34-9.75 28.03-8.81L28.03-8.81L28.03-8.81Q27.72-7.88 27.72-6.76L27.72-6.76L27.72-6.76Q27.72-5.67 28.03-4.75L28.03-4.75L28.03-4.75Q28.34-3.82 28.91-3.16L28.91-3.16L28.91-3.16Q29.48-2.50 30.25-2.13L30.25-2.13L30.25-2.13Q31.02-1.77 31.93-1.77" fill="#733465" stroke="none" stroke-width="none" transform="translate(-63.935028076171875,7.106288311298082)" style="fill: rgb(115, 52, 101);"></path></g><g class="path" style="transform-origin: -15.965px -2.3587px 0px; opacity: 1; animation: fade-7104a07c-2904-46ef-a3b8-b1ebb867870b 1.88679s linear -0.862119s infinite normal forwards running;"><path d="M47.14 0.31L47.14 0.31L47.14 0.31Q45.89 0.31 44.79-0.18L44.79-0.18L44.79-0.18Q43.68-0.68 42.86-1.59L42.86-1.59L42.86-1.59Q42.04-2.50 41.57-3.78L41.57-3.78L41.57-3.78Q41.11-5.07 41.11-6.68L41.11-6.68L41.11-6.68Q41.11-8.22 41.59-9.53L41.59-9.53L41.59-9.53Q42.07-10.84 42.89-11.79L42.89-11.79L42.89-11.79Q43.71-12.74 44.80-13.29L44.80-13.29L44.80-13.29Q45.89-13.83 47.11-13.83L47.11-13.83L47.11-13.83Q48.46-13.83 49.44-13.29L49.44-13.29L49.44-13.29Q50.41-12.74 50.96-12.17L50.96-12.17L50.96-19.24L53.30-19.24L53.30-3.28L53.30-3.28Q53.30-2.29 53.78-1.99L53.78-1.99L53.78-1.99Q54.26-1.69 54.83-1.69L54.83-1.69L54.34 0.13L54.34 0.13Q51.87 0.13 51.32-1.85L51.32-1.85L51.32-1.85Q50.73-1.01 49.71-0.35L49.71-0.35L49.71-0.35Q48.70 0.31 47.14 0.31zM47.66-1.77L47.66-1.77L47.66-1.77Q48.62-1.77 49.49-2.22L49.49-2.22L49.49-2.22Q50.36-2.68 50.96-3.41L50.96-3.41L50.96-10.11L50.96-10.11Q50.47-10.74 49.60-11.27L49.60-11.27L49.60-11.27Q48.72-11.80 47.63-11.80L47.63-11.80L47.63-11.80Q46.70-11.80 45.93-11.41L45.93-11.41L45.93-11.41Q45.16-11.02 44.62-10.35L44.62-10.35L44.62-10.35Q44.07-9.67 43.78-8.75L43.78-8.75L43.78-8.75Q43.50-7.83 43.50-6.76L43.50-6.76L43.50-6.76Q43.50-5.67 43.81-4.76L43.81-4.76L43.81-4.76Q44.12-3.85 44.68-3.19L44.68-3.19L44.68-3.19Q45.24-2.52 46.01-2.15L46.01-2.15L46.01-2.15Q46.77-1.77 47.66-1.77" fill="#733465" stroke="none" stroke-width="none" transform="translate(-63.935028076171875,7.106288311298082)" style="fill: rgb(115, 52, 101);"></path></g><g class="path" style="transform-origin: -4.81503px 0.346298px 0px; opacity: 1; animation: fade-7104a07c-2904-46ef-a3b8-b1ebb867870b 1.88679s linear -0.766328s infinite normal forwards running;"><path d="M60.29-13.52L60.29 0L57.95 0L57.95-13.52L60.29-13.52" fill="#733465" stroke="none" stroke-width="none" transform="translate(-63.935028076171875,7.106288311298082)" style="fill: rgb(115, 52, 101);"></path></g><g class="path" style="transform-origin: -4.81003px -10.3637px 0px; opacity: 1; animation: fade-7104a07c-2904-46ef-a3b8-b1ebb867870b 1.88679s linear -0.670537s infinite normal forwards running;"><path d="M59.12-15.83L59.12-15.83L59.12-15.83Q58.45-15.83 57.97-16.32L57.97-16.32L57.97-16.32Q57.49-16.80 57.49-17.47L57.49-17.47L57.49-17.47Q57.49-18.23 57.93-18.67L57.93-18.67L57.93-18.67Q58.37-19.11 59.12-19.11L59.12-19.11L59.12-19.11Q59.80-19.11 60.28-18.63L60.28-18.63L60.28-18.63Q60.76-18.15 60.76-17.47L60.76-17.47L60.76-17.47Q60.76-16.72 60.32-16.28L60.32-16.28L60.32-16.28Q59.88-15.83 59.12-15.83" fill="#733465" stroke="none" stroke-width="none" transform="translate(-63.935028076171875,7.106288311298082)" style="fill: rgb(115, 52, 101);"></path></g><g class="path" style="transform-origin: 6.19998px 0.191284px 0px; opacity: 1; animation: fade-7104a07c-2904-46ef-a3b8-b1ebb867870b 1.88679s linear -0.574746s infinite normal forwards running;"><path d="M66.72-13.52L66.72-11.26L66.72-11.26Q67.44-12.35 68.58-13.09L68.58-13.09L68.58-13.09Q69.71-13.83 71.27-13.83L71.27-13.83L71.27-13.83Q73.55-13.83 74.69-12.45L74.69-12.45L74.69-12.45Q75.82-11.08 75.82-8.81L75.82-8.81L75.82 0L73.48 0L73.48-8.55L73.48-8.55Q73.48-10.04 72.80-10.91L72.80-10.91L72.80-10.91Q72.12-11.78 70.88-11.78L70.88-11.78L70.88-11.78Q70.28-11.78 69.71-11.56L69.71-11.56L69.71-11.56Q69.13-11.34 68.60-10.95L68.60-10.95L68.60-10.95Q68.07-10.56 67.61-10.04L67.61-10.04L67.61-10.04Q67.16-9.52 66.79-8.94L66.79-8.94L66.79 0L64.45 0L64.45-13.52L66.72-13.52" fill="#733465" stroke="none" stroke-width="none" transform="translate(-63.935028076171875,7.106288311298082)" style="fill: rgb(115, 52, 101);"></path></g><g class="path" style="transform-origin: 21.05px 3.20628px 0px; opacity: 1; animation: fade-7104a07c-2904-46ef-a3b8-b1ebb867870b 1.88679s linear -0.478955s infinite normal forwards running;"><path d="M85.20-13.83L85.20-13.83L85.20-13.83Q86.37-13.83 87.30-13.44L87.30-13.44L87.30-13.44Q88.22-13.05 88.89-12.48L88.89-12.48L88.89-13.52L91.03-13.52L91.03-0.31L91.03-0.31Q91.03 1.38 90.58 2.57L90.58 2.57L90.58 2.57Q90.14 3.77 89.32 4.54L89.32 4.54L89.32 4.54Q88.50 5.30 87.36 5.67L87.36 5.67L87.36 5.67Q86.22 6.03 84.81 6.03L84.81 6.03L84.81 6.03Q83.59 6.03 82.47 5.75L82.47 5.75L82.47 5.75Q81.35 5.46 80.47 4.89L80.47 4.89L81.33 2.86L81.33 2.86Q81.95 3.35 82.78 3.68L82.78 3.68L82.78 3.68Q83.62 4.00 84.81 4.00L84.81 4.00L84.81 4.00Q86.66 4.00 87.71 3.04L87.71 3.04L87.71 3.04Q88.76 2.08 88.76-0.08L88.76-0.08L88.76-1.74L88.76-1.74Q88.24-1.12 87.27-0.56L87.27-0.56L87.27-0.56Q86.29 0 84.94 0L84.94 0L84.94 0Q83.80 0 82.71-0.46L82.71-0.46L82.71-0.46Q81.61-0.91 80.78-1.78L80.78-1.78L80.78-1.78Q79.95-2.65 79.44-3.91L79.44-3.91L79.44-3.91Q78.94-5.17 78.94-6.81L78.94-6.81L78.94-6.81Q78.94-8.32 79.43-9.61L79.43-9.61L79.43-9.61Q79.92-10.89 80.77-11.83L80.77-11.83L80.77-11.83Q81.61-12.77 82.76-13.30L82.76-13.30L82.76-13.30Q83.90-13.83 85.20-13.83zM85.46-2.08L85.46-2.08L85.46-2.08Q86.50-2.08 87.33-2.55L87.33-2.55L87.33-2.55Q88.17-3.02 88.69-3.64L88.69-3.64L88.69-10.71L88.69-10.71Q88.09-11.13 87.31-11.47L87.31-11.47L87.31-11.47Q86.53-11.80 85.44-11.80L85.44-11.80L85.44-11.80Q84.63-11.80 83.89-11.48L83.89-11.48L83.89-11.48Q83.15-11.15 82.58-10.53L82.58-10.53L82.58-10.53Q82.00-9.91 81.67-9.01L81.67-9.01L81.67-9.01Q81.33-8.11 81.33-6.94L81.33-6.94L81.33-6.94Q81.33-5.82 81.67-4.93L81.67-4.93L81.67-4.93Q82.00-4.03 82.58-3.39L82.58-3.39L82.58-3.39Q83.15-2.76 83.89-2.42L83.89-2.42L83.89-2.42Q84.63-2.08 85.46-2.08" fill="#733465" stroke="none" stroke-width="none" transform="translate(-63.935028076171875,7.106288311298082)" style="fill: rgb(115, 52, 101);"></path></g><g class="path" style="transform-origin: 32.9399px 5.67628px 0px; opacity: 1; animation: fade-7104a07c-2904-46ef-a3b8-b1ebb867870b 1.88679s linear -0.383164s infinite normal forwards running;"><path d="M95.13-1.43L95.13-1.43L95.13-1.43Q95.13-2.24 95.59-2.70L95.59-2.70L95.59-2.70Q96.04-3.17 96.88-3.17L96.88-3.17L96.88-3.17Q97.55-3.17 98.08-2.65L98.08-2.65L98.08-2.65Q98.62-2.13 98.62-1.43L98.62-1.43L98.62-1.43Q98.62-0.65 98.12-0.17L98.12-0.17L98.12-0.17Q97.63 0.31 96.88 0.31L96.88 0.31L96.88 0.31Q96.17 0.31 95.65-0.21L95.65-0.21L95.65-0.21Q95.13-0.73 95.13-1.43" fill="#733465" stroke="none" stroke-width="none" transform="translate(-63.935028076171875,7.106288311298082)" style="fill: rgb(115, 52, 101);"></path></g><g class="path" style="transform-origin: 40.74px 5.67628px 0px; opacity: 1; animation: fade-7104a07c-2904-46ef-a3b8-b1ebb867870b 1.88679s linear -0.287373s infinite normal forwards running;"><path d="M102.93-1.43L102.93-1.43L102.93-1.43Q102.93-2.24 103.39-2.70L103.39-2.70L103.39-2.70Q103.84-3.17 104.68-3.17L104.68-3.17L104.68-3.17Q105.35-3.17 105.88-2.65L105.88-2.65L105.88-2.65Q106.42-2.13 106.42-1.43L106.42-1.43L106.42-1.43Q106.42-0.65 105.92-0.17L105.92-0.17L105.92-0.17Q105.43 0.31 104.68 0.31L104.68 0.31L104.68 0.31Q103.97 0.31 103.45-0.21L103.45-0.21L103.45-0.21Q102.93-0.73 102.93-1.43" fill="#733465" stroke="none" stroke-width="none" transform="translate(-63.935028076171875,7.106288311298082)" style="fill: rgb(115, 52, 101);"></path></g><g class="path" style="transform-origin: 48.54px 5.67628px 0px; opacity: 1; animation: fade-7104a07c-2904-46ef-a3b8-b1ebb867870b 1.88679s linear -0.191582s infinite normal forwards running;"><path d="M110.73-1.43L110.73-1.43L110.73-1.43Q110.73-2.24 111.19-2.70L111.19-2.70L111.19-2.70Q111.64-3.17 112.48-3.17L112.48-3.17L112.48-3.17Q113.15-3.17 113.68-2.65L113.68-2.65L113.68-2.65Q114.22-2.13 114.22-1.43L114.22-1.43L114.22-1.43Q114.22-0.65 113.72-0.17L113.72-0.17L113.72-0.17Q113.23 0.31 112.48 0.31L112.48 0.31L112.48 0.31Q111.77 0.31 111.25-0.21L111.25-0.21L111.25-0.21Q110.73-0.73 110.73-1.43" fill="#733465" stroke="none" stroke-width="none" transform="translate(-63.935028076171875,7.106288311298082)" style="fill: rgb(115, 52, 101);"></path></g><g class="path" style="transform-origin: 56.34px 5.67628px 0px; opacity: 1; animation: fade-7104a07c-2904-46ef-a3b8-b1ebb867870b 1.88679s linear -0.095791s infinite normal forwards running;"><path d="M118.53-1.43L118.53-1.43L118.53-1.43Q118.53-2.24 118.99-2.70L118.99-2.70L118.99-2.70Q119.44-3.17 120.28-3.17L120.28-3.17L120.28-3.17Q120.95-3.17 121.48-2.65L121.48-2.65L121.48-2.65Q122.02-2.13 122.02-1.43L122.02-1.43L122.02-1.43Q122.02-0.65 121.52-0.17L121.52-0.17L121.52-0.17Q121.03 0.31 120.28 0.31L120.28 0.31L120.28 0.31Q119.57 0.31 119.05-0.21L119.05-0.21L119.05-0.21Q118.53-0.73 118.53-1.43" fill="#733465" stroke="none" stroke-width="none" transform="translate(-63.935028076171875,7.106288311298082)" style="fill: rgb(115, 52, 101);"></path></g><g class="path" style="transform-origin: 64.14px 5.67628px 0px; opacity: 1; animation: fade-7104a07c-2904-46ef-a3b8-b1ebb867870b 1.88679s linear 0s infinite normal forwards running;"><path d="M126.33-1.43L126.33-1.43L126.33-1.43Q126.33-2.24 126.79-2.70L126.79-2.70L126.79-2.70Q127.24-3.17 128.08-3.17L128.08-3.17L128.08-3.17Q128.75-3.17 129.28-2.65L129.28-2.65L129.28-2.65Q129.82-2.13 129.82-1.43L129.82-1.43L129.82-1.43Q129.82-0.65 129.32-0.17L129.32-0.17L129.32-0.17Q128.83 0.31 128.08 0.31L128.08 0.31L128.08 0.31Q127.37 0.31 126.85-0.21L126.85-0.21L126.85-0.21Q126.33-0.73 126.33-1.43" fill="#733465" stroke="none" stroke-width="none" transform="translate(-63.935028076171875,7.106288311298082)" style="fill: rgb(115, 52, 101);"></path></g></g>
</g>
<style id="fade-7104a07c-2904-46ef-a3b8-b1ebb867870b" data-anikit="">@keyframes fade-7104a07c-2904-46ef-a3b8-b1ebb867870b
{
  0% {
    animation-timing-function: cubic-bezier(0.2057,0.573,0.3723,0.9184);
    opacity: 1;
  }
  100% {
    opacity: 0;
  }
}</style><style id="fade-7104a07c-2904-46ef-a3b8-b1ebb867870b" data-anikit="">@keyframes fade-7104a07c-2904-46ef-a3b8-b1ebb867870b
{
  0% {
    animation-timing-function: cubic-bezier(0.2057,0.573,0.3723,0.9184);
    opacity: 1;
  }
  100% {
    opacity: 0;
  }
}</style></svg>